<?xml version="1.0" encoding="utf-8"?>
<!-- Generator: Adobe Illustrator 25.3.1, SVG Export Plug-In . SVG Version: 6.00 Build 0)  -->
<svg version="1.1" id="Layer_1" xmlns="http://www.w3.org/2000/svg" xmlns:xlink="http://www.w3.org/1999/xlink" x="0px" y="0px"
	 viewBox="0 0 1920 987.1" style="enable-background:new 0 0 1920 987.1;" xml:space="preserve">
<style type="text/css">
	.st0{fill:#383838;}
	.st1{fill:#FFFFFF;}
	.st2{fill:#FF8B2C;}
	.st3{fill:#666666;}
	.st4{fill:none;stroke:#FF8B2C;stroke-width:10;stroke-linecap:round;stroke-miterlimit:10;}
	.st5{fill:#FF8B2C;stroke:#FF8B2C;stroke-width:2;stroke-miterlimit:10;}
	.st6{fill:#383838;stroke:#FF8B2C;stroke-width:5;stroke-linecap:round;stroke-miterlimit:10;}
	.st7{fill:#191919;stroke:#191919;stroke-miterlimit:10;}
</style>
<g>
	<path class="st2" d="M39.7,946.1c-21,0-38-17-38-38V328C1.7,161.6,137,26.3,303.4,26.3c166.4,0,301.7,135.4,301.7,301.7v343.9
		c0,21-17,38-38,38c-21,0-38-17-38-38V328c0-124.4-101.2-225.7-225.7-225.7S77.7,203.6,77.7,328v580C77.7,929,60.7,946.1,39.7,946.1
		z"/>
</g>
<g>
	<path class="st2" d="M567.1,987.1c-166.4,0-301.7-135.4-301.7-301.7c0-21,17-38,38-38c21,0,38,17,38,38
		c0,124.4,101.2,225.7,225.7,225.7s225.7-101.2,225.7-225.7V98.2c0-21,17-38,38-38c21,0,38,17,38,38v587.2
		C868.8,851.7,733.5,987.1,567.1,987.1z"/>
</g>
<g>
	<path class="st2" d="M303.4,440.1H39.7c-21,0-38-17-38-38s17-38,38-38h263.7c21,0,38,17,38,38S324.4,440.1,303.4,440.1z"/>
</g>
<g>
	<g>
		<path class="st3" d="M1206.5,504.2c-15,0-30,4.4-44.6,13c-11.7,6.9-20.5,14.8-26.5,23.6c-4.9-10.7-12-19.3-21.2-25.4
			c-11.2-7.4-24.6-11.2-39.9-11.2c-13.5,0-26.5,3.6-38.6,10.7c-8.5,5-15.8,10.9-21.9,17.8V522c0-4.3-1.5-7.9-4.3-10.8
			c-5.8-5.7-15.9-5.7-21.6,0c-2.9,2.9-4.3,6.5-4.3,10.8v169.3c0,4.3,1.5,7.9,4.3,10.8c5.7,5.7,15.9,5.7,21.6,0
			c2.9-2.9,4.3-6.5,4.3-10.8V584.4c0-9,2.6-17.5,7.9-25.3c5.3-7.9,12.4-14.3,21-19c8.6-4.7,17.8-7.1,27.5-7.1
			c15,0,25.6,4.5,32.5,13.8c7,9.5,10.6,22.1,10.6,37.6v106.9c0,4.3,1.5,7.9,4.3,10.8c5.7,5.7,15.9,5.7,21.6,0
			c2.9-2.9,4.3-6.5,4.3-10.8V585.5c0-9.3,2.7-18,8.1-26c5.4-8.1,12.6-14.6,21.5-19.3c8.9-4.7,18.4-7.1,28.3-7.1
			c15.5,0,26.6,4.6,33.8,14.2c7.4,9.7,11.1,22.6,11.1,38.3v105.8c0,4.3,1.5,7.9,4.3,10.8c2.9,2.9,6.5,4.3,10.8,4.3
			c4.3,0,7.9-1.5,10.8-4.3c2.9-2.9,4.3-6.5,4.3-10.8V584.4c0-23.7-5.7-43.1-16.8-57.7C1248.2,511.8,1230.3,504.2,1206.5,504.2z"/>
	</g>
	<g>
		<path class="st3" d="M1494.4,605.5c3-2.9,4.6-6.4,4.6-10.6c-0.3-19.3-4.8-36.2-13.4-50.3c-8.6-14.1-20-25-33.8-32.4
			c-13.7-7.3-28.6-11-44.3-11c-16,0-31.3,4.3-45.4,12.8c-14.2,8.5-25.6,21-34.1,37c-8.4,16-12.7,34.8-12.7,56
			c0,20.2,4.4,38.3,12.9,53.8c8.6,15.5,20.8,27.8,36.2,36.4c15.4,8.6,33.3,13,53.2,13c14.1,0,27.8-3.3,40.5-9.9
			c12.6-6.5,23.3-15,31.4-24.9c3.2-3.2,4.9-6.8,4.9-10.6c0-3.5-1.4-6.7-4.1-9.5c-5.4-5.4-12.8-5.6-19.8,0.1l-0.6,0.7
			c-5.4,7.3-12.7,13.4-21.8,18.2c-9,4.7-19.3,7.1-30.7,7.1c-14.8,0-27.9-3.3-38.7-9.8c-10.8-6.5-19.2-15.5-25-26.8
			c-5.3-10.3-8.3-22.1-8.8-35.1h139C1487.9,609.7,1491.4,608.3,1494.4,605.5z M1347.6,581.7c3.7-15.7,11-28.1,21.7-36.7
			c11.7-9.5,24.6-14.3,38.2-14.3c9.5,0,18.8,2.1,27.7,6.3c8.8,4.1,16.3,10.2,22.2,18.1c5.7,7.6,9.2,16.7,10.5,26.6H1347.6z"/>
	</g>
	<g>
		<path class="st3" d="M1633.2,501.2c-14,0-27.7,3.8-41,11.3c-9.4,5.3-17.3,11.6-23.6,18.9V522c0-4.3-1.5-7.9-4.3-10.8
			c-5.7-5.7-15.9-5.7-21.6,0c-2.9,2.9-4.3,6.5-4.3,10.8v169.3c0,4.3,1.5,7.9,4.3,10.8c5.7,5.7,15.9,5.7,21.6,0
			c2.9-2.9,4.3-6.5,4.3-10.8v-110c0-9,2.8-17.4,8.4-25.2c5.7-7.9,13.2-14.3,22.3-19.1c9.1-4.7,18.9-7.1,29-7.1
			c16.1,0,27.5,4.5,35,13.9c7.6,9.5,11.4,22.1,11.4,37.5v110c0,4.3,1.5,7.9,4.3,10.8c2.9,2.9,6.5,4.3,10.8,4.3c4,0,7.6-1.4,10.5-4.2
			c3-2.9,4.6-6.5,4.6-10.9V580.2c0-23.4-5.8-42.6-17.3-57C1676,508.6,1657.7,501.2,1633.2,501.2z"/>
	</g>
	<g>
		<path class="st3" d="M1915.7,511.2L1915.7,511.2c-5.8-5.7-15.9-5.7-21.6,0c-2.9,2.9-4.3,6.5-4.3,10.8v106.6c0,17-4.5,30-13.4,38.7
			c-8.9,8.7-21.8,13.1-38.3,13.1c-16.3,0-29-4.4-37.8-13.1c-8.8-8.7-13.2-21.7-13.2-38.7V522c0-4.3-1.5-7.9-4.3-10.8
			c-5.8-5.7-15.9-5.7-21.6,0c-2.9,2.9-4.3,6.5-4.3,10.8v106.6c0,25.6,7.3,45.7,21.8,59.6c14.4,13.9,34.4,20.9,59.5,20.9
			c25.3,0,45.5-7,60.1-20.9c14.6-13.9,22-34,22-59.6V522C1920,517.7,1918.5,514.1,1915.7,511.2z"/>
	</g>
</g>
<path class="st2" d="M1197.3,283c-8.6-11.6-19.8-20.6-33.3-27c-12.8-6-29.1-11.5-48.5-16.4c-23.6-6-41.6-12.7-53.5-19.9
	c-10.4-6.3-15.7-15.3-16.3-26.9c0-13.5,4.9-23.2,14.9-29.8c10.9-7.2,24.3-10.8,39.9-10.8c12.8,0,24.9,2.4,35.9,7.1
	c11,4.7,20.5,11.6,28.8,20.8c4.3,4.3,9.6,6.6,15.3,6.6c5.9,0,10.8-1.7,15-5.2c5.2-4.7,8-10.6,8-17.1c0-6.8-2.5-12.5-7.2-16.4
	c-12-13.8-26.6-24-43.4-30.4c-16.7-6.3-33.5-9.5-50.1-9.5c-19.3,0-36.8,3.6-52.2,10.5c-15.6,7.1-28.1,17.3-37.3,30.2
	c-9.3,13.1-14,28.1-14,44.7c0,26.2,9.7,46.5,28.9,60.1c17.9,12.7,42.7,23.2,73.7,31c20.7,5.3,36.9,11.6,48.2,18.8
	c9.8,6.2,14.6,15.4,14.6,28.1c0,13-5.2,22.7-15.9,29.4c-11.7,7.4-25.7,11.1-41.7,11.1c-33.6,0-59.7-13-79.9-39.7l-0.7-0.8
	c-5.1-5.1-11-7.7-17.4-7.7c-5.2,0-9.8,1.6-13.3,4.7c-6.6,3.9-10.2,9.9-10.2,17.1c0,4.8,1.8,10,5.5,16l0.5,0.7
	c27.7,35,65.4,52.7,112.2,52.7c29.6,0,54.9-7.6,75.2-22.6c20.9-15.5,31.6-36.6,31.6-62.8C1210.6,310.6,1206.1,294.9,1197.3,283z"/>
<path class="st2" d="M983.7,20.4C981.4,10.2,971.2,3.8,961,6c-10.2,2.3-16.7,12.4-14.5,22.6c1.2,5.3,3.4,21.9-0.2,34.3
	c-3.1,10.8-11.2,21-14.8,25c-0.5,0.6-1,1-1.6,1.5c-2.8,2.4-5,5.5-6.1,9.3l0,0c-2.9,10.1,2.9,20.6,13,23.5c1.6,0.5,3.1,0.7,4.6,0.7
	c23.2,0,41.2-48.9,41.4-49.4C989.8,49.5,984.3,23.3,983.7,20.4z"/>
</svg>
